<svg width="162" height="57" viewBox="0 0 162 57" fill="none" xmlns="http://www.w3.org/2000/svg">
<path d="M0.46 43.38H50.8V49.86H0.46V43.38ZM21.58 31.14H29.5V44.94H21.58V31.14ZM5.74 4.86H45.28V32.16H5.74V4.86ZM37.42 11.16H13.6V25.8H37.42V11.16ZM70.5353 4.56C73.3753 4.56 75.8753 5.38 78.0353 7.02C80.2353 8.62 81.9553 10.92 83.1953 13.92C84.4753 16.88 85.1153 20.38 85.1153 24.42C85.1153 28.5 84.4753 32.04 83.1953 35.04C81.9553 38 80.2353 40.3 78.0353 41.94C75.8753 43.54 73.3753 44.34 70.5353 44.34C67.6953 44.34 65.1753 43.54 62.9753 41.94C60.7753 40.3 59.0353 38 57.7553 35.04C56.5153 32.04 55.8953 28.5 55.8953 24.42C55.8953 20.38 56.5153 16.88 57.7553 13.92C59.0353 10.92 60.7753 8.62 62.9753 7.02C65.1753 5.38 67.6953 4.56 70.5353 4.56ZM70.5353 11.82C69.1753 11.82 67.9553 12.3 66.8753 13.26C65.8353 14.22 65.0153 15.64 64.4153 17.52C63.8553 19.36 63.5753 21.66 63.5753 24.42C63.5753 27.14 63.8553 29.46 64.4153 31.38C65.0153 33.26 65.8353 34.68 66.8753 35.64C67.9553 36.6 69.1753 37.08 70.5353 37.08C71.8953 37.08 73.0953 36.6 74.1353 35.64C75.1753 34.68 75.9753 33.26 76.5353 31.38C77.1353 29.46 77.4353 27.14 77.4353 24.42C77.4353 21.66 77.1353 19.36 76.5353 17.52C75.9753 15.64 75.1753 14.22 74.1353 13.26C73.0953 12.3 71.8953 11.82 70.5353 11.82ZM91.1153 0.779999H99.1553V56.34H91.1153V0.779999ZM97.4153 21.72H107.195V28.26H97.4153V21.72ZM110.791 27.42H161.071V33.72H110.791V27.42ZM131.911 20.82H139.831V29.22H131.911V20.82ZM117.211 2.04H125.071V6.72H146.791V2.04H154.711V23.1H117.211V2.04ZM125.071 12.66V16.86H146.791V12.66H125.071ZM116.671 37.2H155.071V55.74H116.671V37.2ZM147.271 43.5H124.471V49.44H147.271V43.5Z" fill="#FFA07A"/>
</svg>
